<svg xmlns="http://www.w3.org/2000/svg" data-name="Layer 1" viewBox="0 0 32 32"><path d="M28.36572,8.79882A6.55,6.55,0,0,0,26.85889,2.0537a6.54575,6.54575,0,0,0-6.6792-1.772l-3.16162.93115a3.59548,3.59548,0,0,1-2.03662,0L11.82031.28173a6.54634,6.54634,0,0,0-6.6792,1.772A6.55,6.55,0,0,0,3.63428,8.79882l2.166,6.40527a3.65833,3.65833,0,0,1-.02051,2.37109A15.61777,15.61777,0,0,0,6.78711,29.71972l.68555,1.29736a1.84614,1.84614,0,0,0,3.31055-.09229l3.42041-7.46289a1.976,1.976,0,0,1,3.59277,0L21.2168,30.9248a1.83457,1.83457,0,0,0,1.62646,1.07568l.05322.001a1.83355,1.83355,0,0,0,1.63086-.98437l.64209-1.21436a15.83488,15.83488,0,0,0,1.02295-12.311,3.62278,3.62278,0,0,1,.00732-2.2876Zm-3.12256,9.00781a14.82848,14.82848,0,0,1-.958,11.5293l-.6416,1.21436a.80973.80973,0,0,1-.77246.45068.82965.82965,0,0,1-.74512-.49316l-3.42041-7.46289a2.97644,2.97644,0,0,0-5.41113,0L9.874,30.50781a.84591.84591,0,0,1-1.51709.04248l-.68555-1.29736A14.65511,14.65511,0,0,1,6.752,17.81982a4.58877,4.58877,0,0,0-.00439-2.936l-2.166-6.40527A5.567,5.567,0,0,1,5.86182,2.74658a5.56353,5.56353,0,0,1,5.67627-1.50586l3.16064.93115a4.59194,4.59194,0,0,0,.83014.15411A4.99509,4.99509,0,0,0,14.269,4.67529a.50024.50024,0,0,0,.38037.59619.5185.5185,0,0,0,.1084.01172.50015.50015,0,0,0,.48779-.39209,4.0241,4.0241,0,0,1,2.2608-2.77979l1.56635-.46143.88184,4.207-2.8042,2.74561a.49967.49967,0,0,0-.10352.56885l2,4.2915a.5.5,0,1,0,.90625-.42285l-1.85059-3.9707,2.3667-2.31708,2.65234,3.07587a.5.5,0,0,0,.60205.12061l2-1a.50006.50006,0,1,0-.44727-.89453l-1.65186.82617L20.96277,5.79363l-.92792-4.42712.42706-.12579a5.56506,5.56506,0,0,1,5.67627,1.50586,5.567,5.567,0,0,1,1.28027,5.73193l-2.166,6.40527A4.63227,4.63227,0,0,0,25.24316,17.80663Z"/></svg>