<svg xmlns="http://www.w3.org/2000/svg" data-name="Layer 1" viewBox="0 0 32 32"><path d="M26.85674,2.05284a6.54749,6.54749,0,0,0-6.68018-1.771l-2.99707.88672-.16016.04248a3.65976,3.65976,0,0,1-2.04.001L11.82012.28185a6.5479,6.5479,0,0,0-6.68018,1.771A6.562,6.562,0,0,0,3.64434,8.82872l2.75,6.81982.00226.00342a.4961.4961,0,0,0,.09412.14264c.00531.00586.00781.01434.01337.0199a.72442.72442,0,0,0,.34821.14581l.00592.00122H7.99834v2.5a1.50164,1.50164,0,0,0,1.5,1.5h.58215l1.92761,9.63818.00372.00848.00067.00616.00494.00684a.49766.49766,0,0,0,.23285.31445l3.5,2a.49965.49965,0,0,0,.49609,0l3.5-2a.50023.50023,0,0,0,.24219-.33594l1.18433-5.92163.0033-.01654.74-3.7h.58215a1.50164,1.50164,0,0,0,1.5-1.5v-2.5h1.14014a.48645.48645,0,0,0,.247-.07452.46317.46317,0,0,0,.04956-.03339.49123.49123,0,0,0,.16522-.20251l.00208-.00256,2.75977-6.84668A6.55222,6.55222,0,0,0,26.85674,2.05284ZM11.1082,20.00157h9.532l-8.95349,2.89252Zm7.94434,9.17871-3.0542,1.74561-2.315-1.32312L19.331,27.78789Zm.50305-2.515-6.68481,2.14819-.40283-2.01392,7.54858-2.43878Zm.68561-3.42761-7.97064,2.57507-.38641-1.93188L20.681,21.039Zm2.75714-4.77618a.50034.50034,0,0,1-.5.5h-13a.50034.50034,0,0,1-.5-.5v-2.5h14ZM27.42461,8.4547l-2.62378,6.50684H7.19579l-2.614-6.48a5.56816,5.56816,0,0,1,1.2793-5.73584A5.56768,5.56768,0,0,1,11.5374,1.24083L14.699,2.172a4.70153,4.70153,0,0,0,.83044.15161A4.99536,4.99536,0,0,0,14.26738,4.6754a.50024.50024,0,0,0,.38037.59619.5185.5185,0,0,0,.1084.01172.50015.50015,0,0,0,.48779-.39209A4.02426,4.02426,0,0,1,17.5078,2.10954l2.952-.86871a5.56659,5.56659,0,0,1,5.67578,1.50488A5.55865,5.55865,0,0,1,27.42461,8.4547Z"/></svg>