<svg xmlns="http://www.w3.org/2000/svg" enable-background="new 0 0 48 48" viewBox="0 0 48 48"><path d="M44,18h-4.79c0.06-0.71,0.04-1.43-0.08-2.16c-0.57-3.5-3.41-6.36-6.9-6.96c-3.2-0.55-6.32,0.7-8.23,3.22
		c-1.91-2.51-5.03-3.76-8.23-3.22c-3.49,0.59-6.33,3.46-6.9,6.96C8.75,16.57,8.73,17.29,8.79,18H4c-0.55,0-1,0.45-1,1s0.45,1,1,1
		h5.21c0.38,1.12,0.99,2.16,1.83,3.05l1.18,12.29c0.21,2.23,2.07,3.91,4.31,3.91c2.21,0,4.06-1.65,4.3-3.85l0.83-7.47
		c0.12-1.05,0.87-1.92,1.83-2.13c0.68-0.14,1.35,0,1.89,0.39c0.54,0.39,0.89,0.99,0.96,1.65l0.84,7.56c0.24,2.19,2.09,3.85,4.3,3.85
		c2.24,0,4.09-1.68,4.31-3.91l1.18-12.29c0.84-0.89,1.44-1.93,1.83-3.05H44c0.55,0,1-0.45,1-1S44.55,18,44,18z M35.3,21.89
		c-0.17,0.17-0.27,0.38-0.3,0.62l-1.21,12.64c-0.11,1.2-1.11,2.1-2.32,2.1c-1.19,0-2.18-0.89-2.31-2.07l-0.84-7.56
		c-0.14-1.22-0.78-2.33-1.78-3.05c-0.75-0.54-1.63-0.83-2.54-0.83c-0.31,0-0.63,0.03-0.94,0.1c-1.82,0.39-3.19,1.94-3.4,3.86
		l-0.83,7.47c-0.13,1.18-1.13,2.07-2.31,2.07c-1.21,0-2.2-0.9-2.32-2.1L13,22.51c-0.02-0.23-0.13-0.45-0.3-0.62
		c-0.57-0.56-1.02-1.2-1.34-1.89H15v2c0,0.55,0.45,1,1,1h16c0.55,0,1-0.45,1-1v-2h3.64C36.32,20.69,35.87,21.33,35.3,21.89z M17,21
		v-4h14v4H17z M37.2,18H33v-2c0-0.55-0.45-1-1-1H16c-0.55,0-1,0.45-1,1v2h-4.2c-0.07-0.6-0.06-1.22,0.04-1.84
		c0.43-2.67,2.6-4.85,5.26-5.31c2.73-0.46,5.39,0.77,6.77,3.15c0.18,0.31,0.51,0.5,0.87,0.5h0.52c0.36,0,0.69-0.19,0.87-0.5
		c1.38-2.38,4.04-3.62,6.77-3.15c2.67,0.45,4.83,2.64,5.26,5.31C37.26,16.78,37.27,17.4,37.2,18z"/></svg>